<?xml version="1.0" standalone="no"?>
<!DOCTYPE svg PUBLIC "-//W3C//DTD SVG 20010904//EN"
 "http://www.w3.org/TR/2001/REC-SVG-20010904/DTD/svg10.dtd">
<svg version="1.0" xmlns="http://www.w3.org/2000/svg"
 width="512.000000pt" height="512.000000pt" viewBox="0 0 512.000000 512.000000"
 preserveAspectRatio="xMidYMid meet">

<g transform="translate(0.000000,512.000000) scale(0.100000,-0.100000)"
fill="#000000" stroke="none">
<path d="M2383 4536 c-210 -40 -385 -136 -534 -294 -102 -108 -171 -219 -215
-349 -40 -119 -54 -199 -54 -318 0 -244 91 -476 254 -652 38 -40 67 -75 65
-77 -2 -2 -42 -22 -88 -45 -92 -46 -175 -97 -234 -144 -21 -16 -39 -28 -41
-26 -2 2 -13 22 -24 45 -89 176 -289 296 -497 296 -160 1 -287 -51 -401 -166
-76 -75 -120 -150 -149 -251 -24 -81 -17 -257 14 -335 20 -52 62 -129 96 -176
14 -20 12 -23 -61 -69 -256 -162 -426 -466 -428 -765 -1 -98 1 -108 29 -158
70 -128 218 -210 470 -261 201 -41 495 -50 718 -21 63 7 74 6 162 -26 306
-109 648 -158 1100 -158 446 0 786 49 1091 158 86 31 100 34 155 26 201 -28
494 -20 699 20 253 49 433 149 495 275 29 57 26 247 -4 360 -43 162 -135 318
-253 431 -60 58 -209 164 -230 164 -5 0 5 17 21 37 176 221 154 565 -48 756
-114 107 -242 157 -404 157 -162 0 -287 -50 -392 -156 -33 -33 -75 -89 -94
-123 -30 -56 -35 -61 -51 -49 -87 63 -180 120 -257 159 l-91 46 49 49 c110
109 201 271 245 439 35 136 38 327 6 458 -57 233 -186 429 -372 567 -85 63
-234 134 -335 160 -104 27 -311 35 -412 16z m377 -177 c162 -40 335 -151 440
-282 65 -80 135 -221 160 -322 28 -110 28 -280 0 -390 -25 -102 -95 -243 -157
-320 -102 -125 -253 -227 -413 -277 -65 -20 -95 -23 -230 -23 -135 0 -165 3
-230 23 -289 91 -496 307 -570 597 -26 102 -28 269 -5 373 48 212 178 397 361
515 191 124 419 161 644 106z m-1645 -1555 c76 -19 137 -55 192 -112 41 -42
103 -146 103 -173 0 -6 -39 -54 -86 -108 -96 -107 -180 -230 -239 -346 l-40
-77 -66 4 c-136 10 -278 108 -340 234 -57 115 -55 238 6 360 87 178 282 268
470 218z m3090 0 c158 -41 275 -169 306 -336 42 -226 -136 -455 -368 -475
l-69 -6 -38 78 c-57 115 -166 273 -252 364 -88 94 -89 100 -24 200 96 148 277
219 445 175z m-2069 -122 c169 -74 237 -87 429 -86 155 0 178 3 258 27 48 15
122 43 163 63 90 43 89 43 239 -32 206 -102 397 -262 538 -450 74 -98 183
-307 221 -424 63 -193 93 -453 62 -551 -35 -109 -127 -199 -290 -281 -441
-222 -1343 -281 -2013 -133 -161 36 -279 76 -403 137 -85 43 -119 66 -181 128
-97 95 -114 139 -111 285 11 563 367 1091 890 1321 42 18 84 34 93 34 8 0 56
-17 105 -38z m-1321 -805 c33 -14 85 -28 116 -32 l56 -7 -14 -46 c-51 -166
-83 -438 -64 -546 6 -36 20 -85 30 -108 25 -57 102 -156 151 -193 21 -16 39
-33 40 -37 0 -12 -212 -10 -331 3 -255 26 -465 98 -533 183 -30 36 -31 42 -30
125 3 263 166 518 418 653 39 21 78 36 86 34 8 -3 42 -16 75 -29z m3651 -3
c242 -119 415 -391 418 -656 l1 -87 -39 -40 c-73 -75 -220 -133 -421 -167 -84
-14 -435 -32 -435 -23 0 3 35 40 78 84 132 136 162 233 143 452 -10 115 -49
320 -72 380 -5 12 -6 23 -3 23 25 0 163 35 196 50 24 10 47 19 52 19 5 1 42
-15 82 -35z"/>
</g>
</svg>
