<?xml version="1.0" standalone="no"?>
<!DOCTYPE svg PUBLIC "-//W3C//DTD SVG 20010904//EN"
 "http://www.w3.org/TR/2001/REC-SVG-20010904/DTD/svg10.dtd">
<svg version="1.0" xmlns="http://www.w3.org/2000/svg"
 width="512.000000pt" height="512.000000pt" viewBox="0 0 512.000000 512.000000"
 preserveAspectRatio="xMidYMid meet">

<g transform="translate(0.000000,512.000000) scale(0.100000,-0.100000)"
fill="#000000" stroke="none">
<path d="M2466 4870 c-63 -16 -153 -70 -197 -117 -22 -24 -55 -74 -72 -111
-31 -65 -32 -71 -32 -203 l0 -135 37 -76 c45 -91 103 -147 196 -191 61 -29 76
-32 162 -32 86 0 101 3 162 32 93 44 151 100 196 191 l37 76 0 136 0 136 -37
76 c-68 136 -188 217 -336 224 -42 2 -94 -1 -116 -6z m168 -162 c55 -16 138
-99 154 -154 7 -23 12 -74 12 -114 0 -40 -5 -91 -12 -114 -16 -55 -99 -138
-154 -154 -94 -28 -169 -8 -239 63 -59 59 -75 102 -75 205 0 103 16 146 75
205 70 71 145 90 239 63z"/>
<path d="M946 3990 c-63 -16 -153 -70 -197 -117 -22 -24 -55 -74 -72 -111 -29
-61 -32 -76 -32 -163 0 -90 2 -99 37 -171 45 -91 103 -147 196 -191 61 -29 76
-32 162 -32 86 0 101 3 162 32 93 44 151 100 196 191 35 72 37 81 37 172 0 91
-2 100 -37 172 -68 136 -188 217 -336 224 -42 2 -94 -1 -116 -6z m168 -162
c86 -26 166 -136 166 -228 0 -124 -116 -240 -240 -240 -63 0 -114 23 -165 75
-102 101 -102 229 0 330 70 71 145 90 239 63z"/>
<path d="M3986 3990 c-63 -16 -153 -70 -197 -117 -22 -24 -55 -74 -72 -111
-29 -61 -32 -76 -32 -163 0 -90 2 -99 37 -171 45 -91 103 -147 196 -191 61
-29 76 -32 162 -32 86 0 101 3 162 32 93 44 151 100 196 191 35 72 37 81 37
172 0 91 -2 100 -37 172 -68 136 -188 217 -336 224 -42 2 -94 -1 -116 -6z
m168 -162 c86 -26 166 -136 166 -228 0 -124 -116 -240 -240 -240 -63 0 -114
23 -165 75 -102 101 -102 229 0 330 70 71 145 90 239 63z"/>
<path d="M2146 3909 c-62 -15 -153 -68 -197 -116 -22 -24 -55 -74 -72 -111
l-32 -67 -3 -207 -4 -208 81 0 81 0 0 176 c0 110 5 192 12 218 16 55 99 138
154 154 58 17 730 17 788 0 55 -16 138 -99 154 -154 7 -26 12 -108 12 -218 l0
-176 81 0 81 0 -4 208 -3 207 -32 67 c-44 93 -100 151 -191 196 l-76 37 -395
2 c-219 1 -413 -3 -435 -8z"/>
<path d="M723 3136 c-92 -30 -182 -101 -228 -181 -38 -65 -322 -786 -350 -889
-34 -126 -53 -237 -61 -362 l-7 -104 80 0 80 0 7 102 c9 124 29 235 63 348 25
85 288 752 323 819 74 144 297 162 398 33 16 -20 102 -156 193 -301 91 -147
173 -267 184 -272 11 -5 116 -22 233 -39 117 -16 221 -34 232 -40 56 -30 65
-96 21 -141 l-29 -29 -306 0 -306 0 -115 230 c-66 131 -123 234 -134 240 -30
15 -66 12 -91 -8 -20 -16 -32 -69 -106 -473 -46 -250 -84 -455 -84 -455 0 -4
152 -25 156 -21 2 2 29 141 59 308 31 167 57 309 59 314 2 6 35 -54 74 -132
40 -78 80 -147 91 -153 13 -6 144 -10 364 -10 392 0 410 3 482 75 119 118 88
322 -59 397 -28 15 -105 31 -250 52 l-209 31 -161 258 c-89 142 -180 278 -204
302 -23 24 -72 59 -109 77 -57 28 -78 33 -157 35 -57 2 -107 -2 -133 -11z"/>
<path d="M4163 3135 c-59 -18 -124 -57 -168 -103 -21 -21 -112 -155 -201 -298
l-162 -259 -208 -31 c-220 -33 -266 -47 -315 -101 -92 -99 -90 -253 6 -348 72
-72 90 -75 482 -75 220 0 351 4 364 10 11 6 51 75 91 153 39 78 72 138 74 132
2 -5 28 -147 59 -314 30 -167 57 -306 60 -309 2 -3 38 1 79 8 73 12 75 13 70
39 -3 14 -40 219 -83 455 -70 382 -81 432 -101 448 -25 20 -61 23 -91 8 -11
-6 -68 -109 -134 -240 l-115 -230 -306 0 -306 0 -29 29 c-35 35 -38 77 -8 114
25 33 49 39 293 73 134 19 204 33 216 43 9 9 89 131 175 271 87 140 172 272
189 294 89 115 290 113 375 -4 44 -61 326 -774 362 -917 17 -69 35 -173 42
-250 l11 -133 80 0 79 0 -7 104 c-16 245 -45 346 -238 834 -175 441 -195 478
-294 544 -31 21 -79 45 -107 53 -61 18 -177 18 -234 0z"/>
<path d="M1551 3103 c-17 -15 -46 -83 -142 -331 -7 -19 -5 -24 14 -31 12 -5
45 -18 74 -30 l52 -20 53 134 52 135 906 0 906 0 52 -135 53 -134 52 20 c29
12 62 25 74 30 l23 8 -21 53 c-12 29 -41 105 -65 168 -25 63 -54 123 -65 133
-20 16 -83 17 -1009 17 -926 0 -989 -1 -1009 -17z"/>
<path d="M2441 2224 c-169 -45 -301 -180 -346 -351 -19 -74 -19 -232 0 -308
63 -239 296 -395 535 -358 197 31 364 190 400 382 15 79 12 218 -5 284 -67
259 -333 419 -584 351z m250 -173 c69 -33 112 -74 150 -143 34 -62 34 -65 34
-188 0 -123 0 -126 -34 -188 -38 -70 -70 -101 -145 -140 -43 -22 -64 -26 -136
-26 -78 -1 -90 2 -148 33 -69 37 -109 80 -144 151 -20 39 -23 61 -23 170 0
113 3 130 25 175 42 86 123 152 215 176 49 13 158 2 206 -20z"/>
<path d="M922 1527 l-122 -312 0 -183 c0 -181 0 -183 25 -207 l24 -25 336 0
335 0 0 80 0 80 -280 0 -280 0 0 113 0 112 115 294 c63 161 115 296 115 300 0
7 -126 61 -141 61 -2 0 -60 -141 -127 -313z"/>
<path d="M3998 1813 c-38 -14 -68 -29 -68 -33 0 -5 52 -140 115 -301 l115
-294 0 -112 0 -113 -280 0 -280 0 0 -80 0 -80 335 0 336 0 24 25 c25 24 25 26
25 207 l0 183 -122 312 c-67 172 -125 313 -128 312 -3 0 -35 -12 -72 -26z"/>
<path d="M1986 1109 c-62 -15 -153 -68 -197 -116 -22 -24 -55 -74 -72 -111
l-32 -67 -3 -248 -4 -247 81 0 81 0 0 216 c0 141 4 231 12 258 16 55 99 138
154 154 59 17 1049 17 1108 0 55 -16 138 -99 154 -154 8 -27 12 -117 12 -258
l0 -216 81 0 81 0 -4 248 -3 248 -37 76 c-45 91 -103 147 -196 191 l-67 32
-555 2 c-315 1 -572 -3 -594 -8z"/>
</g>
</svg>
