<?xml version="1.0" standalone="no"?>
<!DOCTYPE svg PUBLIC "-//W3C//DTD SVG 20010904//EN"
 "http://www.w3.org/TR/2001/REC-SVG-20010904/DTD/svg10.dtd">
<svg version="1.0" xmlns="http://www.w3.org/2000/svg"
 width="512.000000pt" height="512.000000pt" viewBox="0 0 512.000000 512.000000"
 preserveAspectRatio="xMidYMid meet">

<g transform="translate(0.000000,512.000000) scale(0.100000,-0.100000)"
fill="#000000" stroke="none">
<path d="M190 3963 c-23 -29 -22 -76 3 -100 6 -6 181 -82 387 -169 206 -86
379 -161 384 -165 8 -7 -438 -1303 -456 -1324 -5 -6 -57 7 -139 34 -113 37
-134 41 -158 31 -27 -11 -51 -46 -51 -74 0 -7 9 -25 20 -39 15 -19 59 -38 188
-81 92 -31 179 -56 193 -56 40 0 62 35 109 168 23 67 47 122 52 122 5 0 39
-16 74 -36 l64 -36 -30 -34 c-16 -19 -37 -51 -46 -72 -22 -52 -20 -151 4 -204
40 -89 140 -177 226 -200 36 -9 45 -16 40 -28 -16 -38 -16 -120 1 -171 14 -42
34 -70 90 -126 60 -60 80 -74 130 -88 56 -17 124 -16 168 0 13 6 17 2 17 -14
0 -42 30 -93 92 -158 82 -85 124 -107 208 -107 36 -1 75 3 86 7 20 7 24 2 40
-50 24 -77 133 -191 208 -216 84 -29 177 -16 246 33 l32 22 81 -38 c74 -35 90
-39 162 -39 101 1 169 28 225 92 37 42 70 115 70 155 0 25 11 23 83 -14 56
-29 71 -33 147 -33 68 0 94 4 131 23 94 46 154 129 166 231 l6 49 46 -21 c64
-30 159 -29 226 1 103 47 174 147 183 259 2 35 7 63 9 63 2 0 27 -12 56 -26
118 -60 243 -40 338 55 111 111 121 274 25 398 l-33 42 18 68 c10 37 18 82 18
100 1 30 22 53 50 53 5 0 23 -42 40 -93 36 -108 51 -132 86 -141 33 -8 422
136 447 165 22 26 23 58 2 87 -33 48 -52 46 -222 -17 -108 -41 -159 -55 -163
-47 -23 40 -458 1311 -452 1317 4 4 185 78 402 165 217 87 403 166 413 176 41
41 8 128 -49 128 -39 0 -905 -351 -932 -378 -23 -23 -25 -55 -6 -103 5 -13
-16 -22 -114 -48 l-121 -33 -30 25 c-38 32 -18 27 -340 91 -452 90 -691 120
-766 96 -70 -22 -254 -131 -504 -298 -135 -90 -251 -169 -258 -176 -7 -7 -23
-53 -36 -102 -12 -49 -55 -180 -94 -292 -40 -112 -72 -216 -72 -232 0 -22 11
-41 41 -69 204 -199 519 -143 642 112 19 40 42 95 52 123 l18 51 170 36 c94
21 178 44 188 53 41 37 25 117 -26 130 -13 3 -86 -8 -162 -24 -76 -17 -165
-36 -198 -42 -77 -16 -90 -23 -102 -57 -60 -165 -90 -231 -121 -265 -40 -44
-89 -72 -145 -82 -45 -8 -133 14 -168 43 l-24 19 59 169 c32 92 68 204 81 248
l22 80 189 128 c196 133 360 235 453 282 54 27 54 27 154 15 139 -16 350 -52
616 -105 204 -41 227 -48 258 -76 60 -52 67 -52 225 -9 78 22 150 40 158 40
11 0 59 -124 179 -466 89 -256 161 -467 159 -469 -2 -1 -31 -17 -65 -34 -70
-35 -83 -52 -83 -110 0 -54 -19 -141 -31 -141 -26 0 -475 258 -797 458 -383
237 -402 246 -444 204 -28 -27 -26 -78 3 -106 47 -45 738 -464 1007 -612 304
-166 317 -177 317 -266 0 -50 -20 -86 -67 -121 -56 -42 -83 -33 -405 126 -318
158 -334 163 -368 114 -17 -24 -19 -65 -5 -87 5 -8 80 -62 167 -120 126 -83
162 -113 176 -142 25 -51 14 -101 -34 -152 -36 -39 -40 -41 -96 -40 -55 0 -69
6 -278 122 -121 67 -230 122 -241 122 -37 0 -74 -37 -74 -76 0 -42 9 -51 147
-147 61 -42 113 -84 117 -93 11 -29 6 -105 -9 -134 -20 -39 -69 -64 -125 -63
-36 0 -71 14 -181 71 -166 88 -213 92 -237 23 -8 -24 -6 -38 14 -77 27 -56 30
-91 10 -137 -18 -42 -42 -63 -91 -76 -44 -12 -100 -1 -142 26 l-23 15 28 47
c23 40 27 57 27 126 0 96 -22 141 -108 222 -65 62 -113 84 -189 86 l-56 2 -7
45 c-10 65 -51 134 -117 195 -63 59 -127 85 -205 85 l-43 0 0 38 c0 56 -44
134 -110 195 -68 63 -126 87 -212 87 -56 0 -58 1 -58 26 0 59 -25 109 -88 176
-35 37 -83 76 -107 88 -55 27 -147 28 -216 4 l-50 -18 -104 52 c-58 28 -105
56 -105 60 0 12 299 865 306 871 3 3 124 -18 269 -47 281 -56 287 -56 319 -10
22 31 20 52 -7 84 -21 25 -44 31 -272 75 -136 27 -250 51 -252 53 -3 3 0 21 7
41 15 46 0 87 -38 105 -168 78 -834 350 -859 350 -22 0 -38 -8 -53 -27z m1042
-1781 c88 -89 82 -121 -38 -235 -90 -85 -132 -91 -203 -30 -49 42 -71 80 -71
124 0 28 13 46 83 116 79 79 86 83 127 83 39 0 48 -5 102 -58z m327 -266 c37
-20 99 -89 107 -121 12 -48 -7 -79 -119 -193 -122 -124 -148 -142 -202 -142
-29 0 -45 9 -85 46 -57 54 -76 97 -60 140 12 32 207 235 255 265 36 23 66 24
104 5z m354 -320 c18 -7 51 -34 75 -59 35 -39 42 -53 42 -89 0 -40 -5 -47
-108 -150 -104 -104 -109 -108 -152 -108 -39 0 -48 5 -102 58 -50 51 -58 64
-58 97 0 34 9 47 93 133 90 93 139 132 165 132 7 0 27 -6 45 -14z m417 -362
c93 -87 88 -136 -28 -246 -66 -64 -73 -68 -118 -68 -44 0 -51 4 -101 53 -49
50 -53 57 -53 102 0 46 2 50 79 126 76 76 80 79 125 79 42 0 52 -5 96 -46z"/>
</g>
</svg>
